<svg width="164" height="65" viewBox="0 0 164 65" fill="none" xmlns="http://www.w3.org/2000/svg">
<g id="Rectangle 3" filter="url(#filter0_d_2_7)">
<path d="M4 24.0247C4 15.6075 4 11.3988 5.6349 8.19014C7.073 5.36771 9.36771 3.073 12.1901 1.6349C15.3988 0 19.5992 0 28 0H136C144.401 0 148.601 0 151.81 1.6349C154.632 3.073 156.927 5.36771 158.365 8.19014C160 11.3988 160 15.5992 160 24V38.9775C160 40.4394 160 41.1703 159.287 43.3992C158.94 44.4849 157.009 47.8905 156.255 48.7458C154.708 50.5017 154.702 50.5055 154.689 50.5132C149.183 53.8067 138.682 57.4595 120 56C98.371 54.3102 52.9859 50.3362 25.8397 47.9378C18.1472 47.2582 14.3009 46.9183 11.3792 45.195C8.8078 43.6782 6.74411 41.4242 5.45956 38.7293C4 35.6672 4 31.7864 4 24.0247Z" fill="#A6242F" fill-opacity="0.8" shape-rendering="crispEdges"/>
</g>
<defs>
<filter id="filter0_d_2_7" x="0" y="0" width="164" height="64.3306" filterUnits="userSpaceOnUse" color-interpolation-filters="sRGB">
<feFlood flood-opacity="0" result="BackgroundImageFix"/>
<feColorMatrix in="SourceAlpha" type="matrix" values="0 0 0 0 0 0 0 0 0 0 0 0 0 0 0 0 0 0 127 0" result="hardAlpha"/>
<feOffset dy="4"/>
<feGaussianBlur stdDeviation="2"/>
<feComposite in2="hardAlpha" operator="out"/>
<feColorMatrix type="matrix" values="0 0 0 0 0 0 0 0 0 0 0 0 0 0 0 0 0 0 0.25 0"/>
<feBlend mode="normal" in2="BackgroundImageFix" result="effect1_dropShadow_2_7"/>
<feBlend mode="normal" in="SourceGraphic" in2="effect1_dropShadow_2_7" result="shape"/>
</filter>
</defs>
</svg>
