<svg width="164" height="65" viewBox="0 0 164 65" fill="none" xmlns="http://www.w3.org/2000/svg">
<g id="Rectangle 5" filter="url(#filter0_d_2_34)">
<path d="M160 24.0247C160 15.6075 160 11.3988 158.365 8.19014C156.927 5.36771 154.632 3.073 151.81 1.6349C148.601 0 144.401 0 136 0H28C19.5992 0 15.3988 0 12.1901 1.6349C9.36771 3.073 7.073 5.36771 5.6349 8.19014C4 11.3988 4 15.5992 4 24V38.9775C4 40.4394 4 41.1703 4.71277 43.3992C5.05997 44.4849 6.9912 47.8905 7.74467 48.7458C9.29153 50.5017 9.29799 50.5055 9.3109 50.5132C14.8166 53.8067 25.3185 57.4595 44 56C65.629 54.3102 111.014 50.3362 138.16 47.9378C145.853 47.2582 149.699 46.9183 152.621 45.195C155.192 43.6782 157.256 41.4242 158.54 38.7293C160 35.6672 160 31.7864 160 24.0247Z" fill="#A6242F" fill-opacity="0.8" shape-rendering="crispEdges"/>
</g>
<defs>
<filter id="filter0_d_2_34" x="0" y="0" width="164" height="64.3306" filterUnits="userSpaceOnUse" color-interpolation-filters="sRGB">
<feFlood flood-opacity="0" result="BackgroundImageFix"/>
<feColorMatrix in="SourceAlpha" type="matrix" values="0 0 0 0 0 0 0 0 0 0 0 0 0 0 0 0 0 0 127 0" result="hardAlpha"/>
<feOffset dy="4"/>
<feGaussianBlur stdDeviation="2"/>
<feComposite in2="hardAlpha" operator="out"/>
<feColorMatrix type="matrix" values="0 0 0 0 0 0 0 0 0 0 0 0 0 0 0 0 0 0 0.25 0"/>
<feBlend mode="normal" in2="BackgroundImageFix" result="effect1_dropShadow_2_34"/>
<feBlend mode="normal" in="SourceGraphic" in2="effect1_dropShadow_2_34" result="shape"/>
</filter>
</defs>
</svg>
